<?xml version="1.0" standalone="no"?>
<!DOCTYPE svg PUBLIC "-//W3C//DTD SVG 20010904//EN"
 "http://www.w3.org/TR/2001/REC-SVG-20010904/DTD/svg10.dtd">
<svg version="1.0" xmlns="http://www.w3.org/2000/svg"
 width="500.000000pt" height="500.000000pt" viewBox="0 0 500.000000 500.000000"
 preserveAspectRatio="xMidYMid meet">
<metadata>
Created by potrace 1.11, written by Peter Selinger 2001-2013
</metadata>
<g transform="translate(0.000000,500.000000) scale(0.100000,-0.100000)"
fill="#000000" stroke="none">
<path d="M2438 4098 c-29 -46 -74 -115 -98 -155 -25 -39 -54 -76 -65 -82 -11
-5 -67 -12 -125 -16 -58 -3 -118 -7 -135 -10 -16 -2 -55 -6 -85 -10 -30 -3
-82 -10 -115 -15 -33 -5 -78 -11 -100 -15 -81 -11 -113 -18 -235 -47 -477
-113 -805 -287 -925 -492 -27 -45 -52 -120 -60 -173 -5 -32 36 -142 74 -202
100 -155 355 -308 675 -406 71 -21 111 -38 110 -47 -1 -7 -66 -112 -146 -233
-139 -212 -202 -308 -483 -735 -70 -107 -136 -206 -145 -220 l-18 -25 1933 0
1932 0 -87 130 c-80 121 -177 268 -536 815 -78 118 -151 227 -163 242 -12 15
-18 29 -14 31 5 3 55 19 113 37 110 33 168 56 260 98 30 15 57 26 60 27 13 1
151 83 200 118 117 85 230 234 230 306 0 12 4 21 9 21 6 0 9 16 8 35 -1 19 -5
35 -9 35 -5 0 -8 12 -8 26 0 49 -58 151 -125 219 -183 186 -519 331 -970 419
-138 27 -161 31 -240 41 -27 3 -61 8 -75 10 -14 2 -61 7 -105 11 -44 3 -93 8
-110 9 -16 2 -58 4 -93 4 l-62 1 -46 73 c-86 133 -157 242 -164 250 -4 5 -32
-29 -62 -75z"/>
<path d="M673 1050 c-62 -10 -92 -59 -58 -94 9 -9 35 -20 58 -26 71 -18 97
-32 97 -50 0 -25 -20 -38 -64 -43 -31 -4 -42 1 -66 24 -16 16 -33 29 -39 29
-21 0 -10 -29 21 -55 28 -24 39 -27 85 -23 62 5 93 29 93 69 0 27 -29 57 -62
63 -72 14 -89 20 -99 32 -9 11 -8 19 6 34 26 29 80 26 107 -5 26 -30 38 -32
38 -6 0 34 -60 61 -117 51z"/>
<path d="M855 1038 c-7 -21 0 -223 8 -220 4 1 11 2 15 2 4 0 7 41 7 90 0 50 2
90 5 90 3 0 21 -42 40 -92 34 -90 53 -111 71 -78 18 36 49 110 55 134 12 49
22 26 22 -51 0 -103 0 -103 17 -97 12 5 15 28 15 120 l0 114 -24 0 c-17 0 -27
-7 -31 -22 -4 -13 -12 -36 -20 -53 -7 -16 -22 -52 -34 -80 -16 -41 -21 -46
-26 -30 -4 11 -12 31 -17 45 -6 14 -20 50 -32 80 -16 41 -27 56 -44 58 -12 2
-24 -3 -27 -10z"/>
<path d="M1169 1043 c0 -5 -2 -56 -2 -115 -1 -74 2 -109 10 -112 17 -7 23 4
23 38 0 36 24 76 46 76 8 0 14 -3 14 -7 0 -5 22 -32 48 -62 31 -35 53 -52 61
-47 8 6 -1 23 -31 59 -75 90 -74 79 -18 123 27 21 49 42 50 47 1 21 -39 1 -93
-48 -34 -30 -65 -55 -69 -55 -5 0 -8 25 -8 55 0 42 -3 55 -15 55 -8 0 -15 -3
-16 -7z"/>
<path d="M1500 1036 c0 -10 10 -14 33 -12 55 5 57 2 57 -103 0 -100 3 -113 24
-105 8 3 11 36 11 104 -1 107 3 114 61 104 17 -3 24 0 24 11 0 12 -18 15 -105
15 -84 0 -105 -3 -105 -14z"/>
<path d="M1794 1038 c-6 -7 -27 -53 -48 -103 -21 -49 -42 -95 -47 -101 -6 -8
-4 -14 5 -17 16 -6 46 27 46 50 0 16 33 24 84 20 33 -2 41 -7 57 -39 19 -37
33 -46 43 -30 2 4 -7 32 -20 62 -72 159 -96 191 -120 158z m66 -120 c0 -5 -21
-8 -46 -8 -33 0 -45 4 -41 13 3 6 13 32 23 56 l17 44 23 -49 c13 -27 23 -52
24 -56z"/>
<path d="M1979 1048 c-5 -12 -3 -222 2 -230 14 -22 29 6 29 53 l0 50 42 -3
c38 -3 47 -9 79 -52 21 -27 47 -51 59 -53 20 -3 19 0 -10 42 -17 24 -38 49
-48 54 -16 9 -15 10 3 17 55 20 71 68 35 104 -17 17 -33 20 -105 20 -47 0 -85
-1 -86 -2z m167 -43 c16 -22 2 -54 -24 -56 -9 -1 -37 -2 -62 -3 l-45 -1 -3 41
-3 41 62 -2 c46 -2 65 -7 75 -20z"/>
<path d="M2248 1008 c-4 -57 8 -158 20 -170 5 -5 27 -15 48 -23 32 -11 44 -10
77 1 57 20 64 35 66 141 2 78 0 93 -14 93 -18 0 -17 6 -19 -98 -3 -96 -15
-115 -71 -115 -57 0 -70 20 -72 116 -1 45 -2 85 -2 90 -1 4 -7 7 -15 7 -10 0
-16 -14 -18 -42z"/>
<path d="M2523 936 c0 -84 3 -116 13 -120 17 -7 20 8 19 97 -1 42 1 77 5 77 3
0 37 -40 73 -90 37 -49 73 -89 80 -87 16 3 23 63 19 160 -3 59 -7 77 -18 77
-12 0 -14 -17 -12 -90 2 -50 0 -90 -3 -90 -4 0 -37 41 -74 90 -93 125 -102
122 -102 -24z"/>
<path d="M2839 983 c-44 -98 -70 -165 -66 -170 11 -10 34 11 45 41 11 30 15
32 62 33 40 1 55 -3 70 -20 11 -11 20 -26 20 -33 0 -13 29 -28 38 -19 3 3 -19
57 -48 120 -65 141 -77 146 -121 48z"/>
<path d="M3132 933 l3 -118 78 1 c59 2 83 6 98 20 26 23 25 69 -3 88 -21 15
-21 16 -4 35 24 27 14 68 -20 81 -14 6 -54 10 -90 10 l-65 0 3 -117z m130 88
c4 -1 12 -10 18 -22 18 -32 -4 -49 -61 -49 -27 0 -49 3 -50 8 0 4 -2 15 -4 26
-8 39 17 49 97 37z m17 -110 c18 -10 22 -44 6 -59 -12 -12 -106 -18 -113 -8
-13 22 -8 71 7 77 21 8 76 3 100 -10z"/>
<path d="M3387 1043 c-2 -5 -3 -57 -3 -118 1 -90 4 -110 16 -110 11 0 16 15
20 55 l5 55 68 2 c53 2 67 0 68 -12 0 -8 2 -34 2 -57 2 -31 6 -43 17 -43 12 0
15 19 15 115 0 103 -2 115 -18 118 -11 2 -18 -2 -16 -10 1 -7 1 -29 0 -49 l-1
-36 -70 0 -70 -1 -1 32 c-1 17 -1 39 0 49 2 17 -24 25 -32 10z"/>
<path d="M3723 1033 c-3 -10 -13 -36 -23 -58 -10 -22 -30 -66 -45 -99 -14 -32
-24 -60 -22 -62 10 -10 35 10 49 39 14 30 20 33 67 34 50 2 52 1 77 -38 14
-22 30 -39 35 -37 14 5 13 9 -16 73 -14 30 -36 80 -50 110 -18 41 -30 55 -45
55 -11 0 -23 -8 -27 -17z m55 -73 l21 -50 -45 0 c-24 0 -44 3 -44 7 0 14 35
93 41 93 4 0 16 -22 27 -50z"/>
<path d="M3912 936 c3 -116 18 -156 29 -78 5 37 27 72 46 72 4 0 26 -25 48
-54 35 -48 71 -74 83 -61 3 2 -20 35 -51 73 l-56 70 49 38 c27 22 49 42 50 47
1 21 -39 1 -95 -48 -34 -30 -65 -55 -68 -55 -3 0 -5 24 -4 52 0 43 -3 54 -17
56 -15 3 -16 -7 -14 -112z"/>
<path d="M4143 1038 c2 -8 20 -13 45 -12 32 0 42 -4 43 -15 0 -9 0 -55 -1
-103 -1 -47 3 -89 8 -92 20 -12 29 22 27 112 -1 99 -4 93 59 96 16 0 31 7 33
14 4 9 -22 12 -107 12 -85 0 -111 -3 -107 -12z"/>
<path d="M4400 936 c0 -106 8 -141 28 -122 6 7 10 203 4 224 -2 6 -10 12 -18
12 -11 0 -14 -23 -14 -114z"/>
</g>
</svg>
